ffmpeg started on 2026-01-18 at 20:42:53
Report written to "C:\Dev\OSPanel\domains\Java-AT\modules\ffmpeg\FFMetrics\reports\ssim_report-6.txt"
Log level: 32
Command line:
ffmpeg -hide_banner -nostdin -r 24000/1001 -i "F:\\Convert\\files\\[DC] Make Heroine ga Oosugiru - 07_Telegram_HEVC(166).mkv" -r 24000/1001 -i "F:\\Convert\\files\\[DC] Make Heroine ga Oosugiru - 07_Telegram.mp4" -lavfi "[0:v]settb=AVTB,setpts=PTS-STARTPTS,format=pix_fmts=yuv420p10le,fps=24000/1001,scale=1920:1080:flags=lanczos:param0=3:out_range=limited:out_color_matrix=bt709:out_chroma_loc=left,setsar=1/1,setdar=(1920/1080)*(1/1),colorspace=format=yuv420p10:range=tv:primaries=bt709:trc=bt709:space=bt709:fast=0[main];[1:v]settb=AVTB,setpts=PTS-STARTPTS,format=pix_fmts=yuv420p,fps=24000/1001,scale=1920:1080:flags=lanczos:param0=3:out_range=limited:out_color_matrix=bt709:out_chroma_loc=left,setsar=1.000,setdar=1.778,colorspace=format=yuv420p:range=tv:primaries=bt709:trc=bt709:space=bt709:fast=0[ref];[main][ref]ssim=eof_action=endall:stats_file='C\\:/Dev/OSPanel/domains/Java-AT/modules/ffmpeg/FFMetrics/logs/ssim_logfile-6.txt'" -f null -
Input #0, matroska,webm, from 'F:\Convert\files\[DC] Make Heroine ga Oosugiru - 07_Telegram_HEVC(166).mkv':
  Metadata:
    COMPATIBLE_BRANDS: isomiso2avc1mp41
    MAJOR_BRAND     : isom
    MINOR_VERSION   : 512
    ENCODER         : Lavf61.7.100
  Duration: 00:24:06.79, start: -0.021000, bitrate: 972 kb/s
  Stream #0:0: Video: hevc (Main 10), yuv420p10le(tv, bt709, progressive), 1920x1080 [SAR 1:1 DAR 16:9], 23.98 fps, 23.98 tbr, 1k tbn (default)
      Metadata:
        HANDLER_NAME    : VideoHandler
        VENDOR_ID       : [0][0][0][0]
        ENCODER         : Lavc61.19.100 libx265
        BPS             : 775254
        DURATION        : 00:24:06.569708333
        NUMBER_OF_FRAMES: 34683
        NUMBER_OF_BYTES : 140182480
        _STATISTICS_WRITING_APP: mkvpropedit v94.0 ('Initiate') 64-bit
        _STATISTICS_WRITING_DATE_UTC: 2026-01-18 10:53:30
        _STATISTICS_TAGS: BPS DURATION NUMBER_OF_FRAMES NUMBER_OF_BYTES
  Stream #0:1: Audio: aac (LC), 48000 Hz, stereo, fltp (default)
      Metadata:
        HANDLER_NAME    : SoundHandler
        VENDOR_ID       : [0][0][0][0]
        ENCODER         : Lavc61.19.100 aac
        BPS             : 193194
        DURATION        : 00:24:06.784000000
        NUMBER_OF_FRAMES: 67819
        NUMBER_OF_BYTES : 34938755
        _STATISTICS_WRITING_APP: mkvpropedit v94.0 ('Initiate') 64-bit
        _STATISTICS_WRITING_DATE_UTC: 2026-01-18 10:53:30
        _STATISTICS_TAGS: BPS DURATION NUMBER_OF_FRAMES NUMBER_OF_BYTES
Input #1, mov,mp4,m4a,3gp,3g2,mj2, from 'F:\Convert\files\[DC] Make Heroine ga Oosugiru - 07_Telegram.mp4':
  Metadata:
    major_brand     : isom
    minor_version   : 512
    compatible_brands: isomiso2avc1mp41
    encoder         : Lavf60.16.100
  Duration: 00:24:06.74, start: 0.000000, bitrate: 3764 kb/s
  Stream #1:0[0x1](und): Video: h264 (High) (avc1 / 0x31637661), yuv420p(tv, bt709, progressive), 1920x1080 [SAR 1:1 DAR 16:9], 3616 kb/s, 23.98 fps, 23.98 tbr, 24k tbn (default)
      Metadata:
        handler_name    : VideoHandler
        vendor_id       : [0][0][0][0]
        encoder         : Lavc60.31.102 h264_qsv
  Stream #1:1[0x2](und): Audio: aac (HE-AACv2) (mp4a / 0x6134706D), 48000 Hz, stereo, fltp, 144 kb/s (default)
      Metadata:
        handler_name    : SoundHandler
        vendor_id       : [0][0][0][0]
Stream mapping:
  Stream #0:0 (hevc) -> settb:default
  Stream #1:0 (h264) -> settb:default
  ssim:default -> Stream #0:0 (wrapped_avframe)
  Stream #0:1 -> #0:1 (aac (native) -> pcm_s16le (native))
Output #0, null, to 'pipe:':
  Metadata:
    COMPATIBLE_BRANDS: isomiso2avc1mp41
    MAJOR_BRAND     : isom
    MINOR_VERSION   : 512
    encoder         : Lavf61.7.100
  Stream #0:0: Video: wrapped_avframe, yuv420p10le(tv, bt709, progressive), 1920x1080 [SAR 1:1 DAR 16:9], q=2-31, 200 kb/s, 23.98 fps, 23.98 tbn
      Metadata:
        encoder         : Lavc61.19.100 wrapped_avframe
  Stream #0:1: Audio: pcm_s16le, 48000 Hz, stereo, s16, 1536 kb/s (default)
      Metadata:
        HANDLER_NAME    : SoundHandler
        VENDOR_ID       : [0][0][0][0]
        _STATISTICS_TAGS: BPS DURATION NUMBER_OF_FRAMES NUMBER_OF_BYTES
        BPS             : 193194
        DURATION        : 00:24:06.784000000
        NUMBER_OF_FRAMES: 67819
        NUMBER_OF_BYTES : 34938755
        _STATISTICS_WRITING_APP: mkvpropedit v94.0 ('Initiate') 64-bit
        _STATISTICS_WRITING_DATE_UTC: 2026-01-18 10:53:30
        encoder         : Lavc61.19.100 pcm_s16le
frame=  132 fps=0.0 q=-0.0 size=N/A time=00:00:05.50 bitrate=N/A speed=  11x    frame=  343 fps=333 q=-0.0 size=N/A time=00:00:14.30 bitrate=N/A speed=13.9x    frame=  542 fps=352 q=-0.0 size=N/A time=00:00:22.60 bitrate=N/A speed=14.7x    frame=  747 fps=364 q=-0.0 size=N/A time=00:00:31.15 bitrate=N/A speed=15.2x    frame=  928 fps=360 q=-0.0 size=N/A time=00:00:38.70 bitrate=N/A speed=  15x    frame= 1095 fps=352 q=-0.0 size=N/A time=00:00:45.67 bitrate=N/A speed=14.7x    frame= 1271 fps=351 q=-0.0 size=N/A time=00:00:53.01 bitrate=N/A speed=14.6x    frame= 1444 fps=349 q=-0.0 size=N/A time=00:01:00.22 bitrate=N/A speed=14.6x    frame= 1599 fps=344 q=-0.0 size=N/A time=00:01:06.69 bitrate=N/A speed=14.4x    frame= 1769 fps=342 q=-0.0 size=N/A time=00:01:13.78 bitrate=N/A speed=14.3x    frame= 1940 fps=341 q=-0.0 size=N/A time=00:01:20.91 bitrate=N/A speed=14.2x    frame= 2079 fps=336 q=-0.0 size=N/A time=00:01:26.71 bitrate=N/A speed=  14x    frame= 2230 fps=333 q=-0.0 size=N/A time=00:01:33.00 bitrate=N/A speed=13.9x    frame= 2394 fps=331 q=-0.0 size=N/A time=00:01:39.84 bitrate=N/A speed=13.8x    frame= 2536 fps=328 q=-0.0 size=N/A time=00:01:45.77 bitrate=N/A speed=13.7x    frame= 2706 fps=328 q=-0.0 size=N/A time=00:01:52.86 bitrate=N/A speed=13.7x    frame= 2896 fps=330 q=-0.0 size=N/A time=00:02:00.78 bitrate=N/A speed=13.8x    frame= 3083 fps=332 q=-0.0 size=N/A time=00:02:08.58 bitrate=N/A speed=13.8x    frame= 3283 fps=335 q=-0.0 size=N/A time=00:02:16.92 bitrate=N/A speed=  14x    frame= 3480 fps=337 q=-0.0 size=N/A time=00:02:25.14 bitrate=N/A speed=14.1x    frame= 3687 fps=340 q=-0.0 size=N/A time=00:02:33.77 bitrate=N/A speed=14.2x    frame= 3893 fps=343 q=-0.0 size=N/A time=00:02:42.37 bitrate=N/A speed=14.3x    frame= 4088 fps=344 q=-0.0 size=N/A time=00:02:50.50 bitrate=N/A speed=14.4x    frame= 4290 fps=346 q=-0.0 size=N/A time=00:02:58.92 bitrate=N/A speed=14.5x    frame= 4489 fps=348 q=-0.0 size=N/A time=00:03:07.22 bitrate=N/A speed=14.5x    frame= 4699 fps=350 q=-0.0 size=N/A time=00:03:15.98 bitrate=N/A speed=14.6x    frame= 4896 fps=351 q=-0.0 size=N/A time=00:03:24.20 bitrate=N/A speed=14.7x    frame= 5095 fps=353 q=-0.0 size=N/A time=00:03:32.50 bitrate=N/A speed=14.7x    frame= 5289 fps=354 q=-0.0 size=N/A time=00:03:40.59 bitrate=N/A speed=14.8x    frame= 5495 fps=355 q=-0.0 size=N/A time=00:03:49.18 bitrate=N/A speed=14.8x    frame= 5693 fps=356 q=-0.0 size=N/A time=00:03:57.44 bitrate=N/A speed=14.8x    frame= 5889 fps=357 q=-0.0 size=N/A time=00:04:05.62 bitrate=N/A speed=14.9x    frame= 6086 fps=358 q=-0.0 size=N/A time=00:04:13.83 bitrate=N/A speed=14.9x    frame= 6289 fps=358 q=-0.0 size=N/A time=00:04:22.30 bitrate=N/A speed=  15x    frame= 6489 fps=359 q=-0.0 size=N/A time=00:04:30.64 bitrate=N/A speed=  15x    frame= 6690 fps=360 q=-0.0 size=N/A time=00:04:39.02 bitrate=N/A speed=  15x    frame= 6892 fps=361 q=-0.0 size=N/A time=00:04:47.45 bitrate=N/A speed=15.1x    frame= 7087 fps=361 q=-0.0 size=N/A time=00:04:55.58 bitrate=N/A speed=15.1x    frame= 7281 fps=362 q=-0.0 size=N/A time=00:05:03.67 bitrate=N/A speed=15.1x    frame= 7474 fps=362 q=-0.0 size=N/A time=00:05:11.72 bitrate=N/A speed=15.1x    frame= 7664 fps=362 q=-0.0 size=N/A time=00:05:19.65 bitrate=N/A speed=15.1x    frame= 7867 fps=363 q=-0.0 size=N/A time=00:05:28.11 bitrate=N/A speed=15.1x    frame= 8060 fps=363 q=-0.0 size=N/A time=00:05:36.16 bitrate=N/A speed=15.2x    frame= 8255 fps=364 q=-0.0 size=N/A time=00:05:44.30 bitrate=N/A speed=15.2x    frame= 8450 fps=364 q=-0.0 size=N/A time=00:05:52.43 bitrate=N/A speed=15.2x    frame= 8652 fps=365 q=-0.0 size=N/A time=00:06:00.86 bitrate=N/A speed=15.2x    frame= 8849 fps=365 q=-0.0 size=N/A time=00:06:09.07 bitrate=N/A speed=15.2x    frame= 9046 fps=365 q=-0.0 size=N/A time=00:06:17.29 bitrate=N/A speed=15.2x    frame= 9243 fps=366 q=-0.0 size=N/A time=00:06:25.51 bitrate=N/A speed=15.3x    frame= 9446 fps=366 q=-0.0 size=N/A time=00:06:33.97 bitrate=N/A speed=15.3x    frame= 9643 fps=367 q=-0.0 size=N/A time=00:06:42.19 bitrate=N/A speed=15.3x    frame= 9842 fps=367 q=-0.0 size=N/A time=00:06:50.49 bitrate=N/A speed=15.3x    frame=10036 fps=367 q=-0.0 size=N/A time=00:06:58.58 bitrate=N/A speed=15.3x    frame=10236 fps=367 q=-0.0 size=N/A time=00:07:06.92 bitrate=N/A speed=15.3x    frame=10435 fps=368 q=-0.0 size=N/A time=00:07:15.22 bitrate=N/A speed=15.3x    frame=10627 fps=368 q=-0.0 size=N/A time=00:07:23.23 bitrate=N/A speed=15.3x    frame=10818 fps=368 q=-0.0 size=N/A time=00:07:31.20 bitrate=N/A speed=15.3x    frame=11025 fps=368 q=-0.0 size=N/A time=00:07:39.83 bitrate=N/A speed=15.4x    frame=11214 fps=368 q=-0.0 size=N/A time=00:07:47.71 bitrate=N/A speed=15.4x    frame=11406 fps=369 q=-0.0 size=N/A time=00:07:55.72 bitrate=N/A speed=15.4x    frame=11606 fps=369 q=-0.0 size=N/A time=00:08:04.06 bitrate=N/A speed=15.4x    frame=11804 fps=369 q=-0.0 size=N/A time=00:08:12.32 bitrate=N/A speed=15.4x    frame=12003 fps=369 q=-0.0 size=N/A time=00:08:20.62 bitrate=N/A speed=15.4x    frame=12200 fps=370 q=-0.0 size=N/A time=00:08:28.84 bitrate=N/A speed=15.4x    frame=12398 fps=370 q=-0.0 size=N/A time=00:08:37.09 bitrate=N/A speed=15.4x    frame=12601 fps=370 q=-0.0 size=N/A time=00:08:45.56 bitrate=N/A speed=15.4x    frame=12803 fps=370 q=-0.0 size=N/A time=00:08:53.99 bitrate=N/A speed=15.5x    frame=12997 fps=371 q=-0.0 size=N/A time=00:09:02.08 bitrate=N/A speed=15.5x    frame=13197 fps=371 q=-0.0 size=N/A time=00:09:10.42 bitrate=N/A speed=15.5x    frame=13397 fps=371 q=-0.0 size=N/A time=00:09:18.76 bitrate=N/A speed=15.5x    frame=13589 fps=371 q=-0.0 size=N/A time=00:09:26.77 bitrate=N/A speed=15.5x    frame=13782 fps=371 q=-0.0 size=N/A time=00:09:34.82 bitrate=N/A speed=15.5x    frame=13984 fps=371 q=-0.0 size=N/A time=00:09:43.24 bitrate=N/A speed=15.5x    frame=14166 fps=371 q=-0.0 size=N/A time=00:09:50.84 bitrate=N/A speed=15.5x    frame=14363 fps=371 q=-0.0 size=N/A time=00:09:59.05 bitrate=N/A speed=15.5x    frame=14556 fps=371 q=-0.0 size=N/A time=00:10:07.10 bitrate=N/A speed=15.5x    frame=14752 fps=372 q=-0.0 size=N/A time=00:10:15.28 bitrate=N/A speed=15.5x    frame=14946 fps=371 q=-0.0 size=N/A time=00:10:23.37 bitrate=N/A speed=15.5x    frame=15134 fps=371 q=-0.0 size=N/A time=00:10:31.21 bitrate=N/A speed=15.5x    frame=15317 fps=371 q=-0.0 size=N/A time=00:10:38.84 bitrate=N/A speed=15.5x    frame=15515 fps=371 q=-0.0 size=N/A time=00:10:47.10 bitrate=N/A speed=15.5x    frame=15715 fps=372 q=-0.0 size=N/A time=00:10:55.44 bitrate=N/A speed=15.5x    frame=15916 fps=372 q=-0.0 size=N/A time=00:11:03.82 bitrate=N/A speed=15.5x    frame=16112 fps=372 q=-0.0 size=N/A time=00:11:12.00 bitrate=N/A speed=15.5x    frame=16314 fps=372 q=-0.0 size=N/A time=00:11:20.42 bitrate=N/A speed=15.5x    frame=16506 fps=372 q=-0.0 size=N/A time=00:11:28.43 bitrate=N/A speed=15.5x    frame=16712 fps=372 q=-0.0 size=N/A time=00:11:37.02 bitrate=N/A speed=15.5x    frame=16905 fps=372 q=-0.0 size=N/A time=00:11:45.07 bitrate=N/A speed=15.5x    frame=17105 fps=373 q=-0.0 size=N/A time=00:11:53.42 bitrate=N/A speed=15.5x    frame=17309 fps=373 q=-0.0 size=N/A time=00:12:01.92 bitrate=N/A speed=15.6x    frame=17512 fps=373 q=-0.0 size=N/A time=00:12:10.39 bitrate=N/A speed=15.6x    frame=17705 fps=373 q=-0.0 size=N/A time=00:12:18.44 bitrate=N/A speed=15.6x    frame=17900 fps=373 q=-0.0 size=N/A time=00:12:26.57 bitrate=N/A speed=15.6x    frame=18092 fps=373 q=-0.0 size=N/A time=00:12:34.58 bitrate=N/A speed=15.6x    frame=18283 fps=373 q=-0.0 size=N/A time=00:12:42.55 bitrate=N/A speed=15.6x    frame=18483 fps=373 q=-0.0 size=N/A time=00:12:50.89 bitrate=N/A speed=15.6x    frame=18685 fps=373 q=-0.0 size=N/A time=00:12:59.32 bitrate=N/A speed=15.6x    frame=18884 fps=374 q=-0.0 size=N/A time=00:13:07.62 bitrate=N/A speed=15.6x    frame=19085 fps=374 q=-0.0 size=N/A time=00:13:16.00 bitrate=N/A speed=15.6x    frame=19290 fps=374 q=-0.0 size=N/A time=00:13:24.55 bitrate=N/A speed=15.6x    frame=19484 fps=374 q=-0.0 size=N/A time=00:13:32.64 bitrate=N/A speed=15.6x    frame=19690 fps=374 q=-0.0 size=N/A time=00:13:41.23 bitrate=N/A speed=15.6x    frame=19884 fps=374 q=-0.0 size=N/A time=00:13:49.32 bitrate=N/A speed=15.6x    frame=20091 fps=374 q=-0.0 size=N/A time=00:13:57.96 bitrate=N/A speed=15.6x    frame=20292 fps=375 q=-0.0 size=N/A time=00:14:06.34 bitrate=N/A speed=15.6x    frame=20488 fps=375 q=-0.0 size=N/A time=00:14:14.52 bitrate=N/A speed=15.6x    frame=20671 fps=374 q=-0.0 size=N/A time=00:14:22.15 bitrate=N/A speed=15.6x    frame=20874 fps=375 q=-0.0 size=N/A time=00:14:30.61 bitrate=N/A speed=15.6x    frame=21082 fps=375 q=-0.0 size=N/A time=00:14:39.29 bitrate=N/A speed=15.6x    frame=21278 fps=375 q=-0.0 size=N/A time=00:14:47.46 bitrate=N/A speed=15.6x    frame=21483 fps=375 q=-0.0 size=N/A time=00:14:56.02 bitrate=N/A speed=15.6x    frame=21692 fps=375 q=-0.0 size=N/A time=00:15:04.73 bitrate=N/A speed=15.7x    frame=21887 fps=375 q=-0.0 size=N/A time=00:15:12.87 bitrate=N/A speed=15.7x    frame=22090 fps=376 q=-0.0 size=N/A time=00:15:21.33 bitrate=N/A speed=15.7x    frame=22284 fps=376 q=-0.0 size=N/A time=00:15:29.42 bitrate=N/A speed=15.7x    frame=22490 fps=376 q=-0.0 size=N/A time=00:15:38.02 bitrate=N/A speed=15.7x    frame=22687 fps=376 q=-0.0 size=N/A time=00:15:46.23 bitrate=N/A speed=15.7x    frame=22878 fps=376 q=-0.0 size=N/A time=00:15:54.20 bitrate=N/A speed=15.7x    frame=23077 fps=376 q=-0.0 size=N/A time=00:16:02.50 bitrate=N/A speed=15.7x    frame=23284 fps=376 q=-0.0 size=N/A time=00:16:11.13 bitrate=N/A speed=15.7x    frame=23480 fps=376 q=-0.0 size=N/A time=00:16:19.31 bitrate=N/A speed=15.7x    frame=23680 fps=376 q=-0.0 size=N/A time=00:16:27.65 bitrate=N/A speed=15.7x    frame=23882 fps=376 q=-0.0 size=N/A time=00:16:36.07 bitrate=N/A speed=15.7x    frame=24090 fps=376 q=-0.0 size=N/A time=00:16:44.75 bitrate=N/A speed=15.7x    frame=24283 fps=377 q=-0.0 size=N/A time=00:16:52.80 bitrate=N/A speed=15.7x    frame=24479 fps=377 q=-0.0 size=N/A time=00:17:00.97 bitrate=N/A speed=15.7x    frame=24683 fps=377 q=-0.0 size=N/A time=00:17:09.48 bitrate=N/A speed=15.7x    frame=24881 fps=377 q=-0.0 size=N/A time=00:17:17.74 bitrate=N/A speed=15.7x    frame=25082 fps=377 q=-0.0 size=N/A time=00:17:26.12 bitrate=N/A speed=15.7x    frame=25283 fps=377 q=-0.0 size=N/A time=00:17:34.51 bitrate=N/A speed=15.7x    frame=25487 fps=377 q=-0.0 size=N/A time=00:17:43.02 bitrate=N/A speed=15.7x    frame=25689 fps=377 q=-0.0 size=N/A time=00:17:51.44 bitrate=N/A speed=15.7x    frame=25889 fps=377 q=-0.0 size=N/A time=00:17:59.78 bitrate=N/A speed=15.7x    frame=26086 fps=377 q=-0.0 size=N/A time=00:18:08.00 bitrate=N/A speed=15.7x    frame=26286 fps=377 q=-0.0 size=N/A time=00:18:16.34 bitrate=N/A speed=15.7x    frame=26492 fps=378 q=-0.0 size=N/A time=00:18:24.93 bitrate=N/A speed=15.7x    frame=26689 fps=378 q=-0.0 size=N/A time=00:18:33.15 bitrate=N/A speed=15.7x    frame=26884 fps=378 q=-0.0 size=N/A time=00:18:41.28 bitrate=N/A speed=15.7x    frame=27068 fps=377 q=-0.0 size=N/A time=00:18:48.96 bitrate=N/A speed=15.7x    frame=27263 fps=377 q=-0.0 size=N/A time=00:18:57.09 bitrate=N/A speed=15.7x    frame=27462 fps=377 q=-0.0 size=N/A time=00:19:05.39 bitrate=N/A speed=15.7x    frame=27651 fps=377 q=-0.0 size=N/A time=00:19:13.27 bitrate=N/A speed=15.7x    frame=27850 fps=378 q=-0.0 size=N/A time=00:19:21.57 bitrate=N/A speed=15.7x    frame=28046 fps=377 q=-0.0 size=N/A time=00:19:29.75 bitrate=N/A speed=15.7x    frame=28242 fps=378 q=-0.0 size=N/A time=00:19:37.92 bitrate=N/A speed=15.7x    frame=28437 fps=378 q=-0.0 size=N/A time=00:19:46.05 bitrate=N/A speed=15.7x    frame=28631 fps=378 q=-0.0 size=N/A time=00:19:54.15 bitrate=N/A speed=15.7x    frame=28819 fps=377 q=-0.0 size=N/A time=00:20:01.99 bitrate=N/A speed=15.7x    frame=28999 fps=377 q=-0.0 size=N/A time=00:20:09.49 bitrate=N/A speed=15.7x    frame=29177 fps=377 q=-0.0 size=N/A time=00:20:16.92 bitrate=N/A speed=15.7x    frame=29368 fps=377 q=-0.0 size=N/A time=00:20:24.89 bitrate=N/A speed=15.7x    frame=29554 fps=377 q=-0.0 size=N/A time=00:20:32.64 bitrate=N/A speed=15.7x    frame=29744 fps=377 q=-0.0 size=N/A time=00:20:40.57 bitrate=N/A speed=15.7x    frame=29923 fps=377 q=-0.0 size=N/A time=00:20:48.03 bitrate=N/A speed=15.7x    frame=30092 fps=376 q=-0.0 size=N/A time=00:20:55.08 bitrate=N/A speed=15.7x    frame=30298 fps=376 q=-0.0 size=N/A time=00:21:03.67 bitrate=N/A speed=15.7x    frame=30498 fps=376 q=-0.0 size=N/A time=00:21:12.02 bitrate=N/A speed=15.7x    frame=30687 fps=376 q=-0.0 size=N/A time=00:21:19.90 bitrate=N/A speed=15.7x    frame=30895 fps=377 q=-0.0 size=N/A time=00:21:28.57 bitrate=N/A speed=15.7x    frame=31092 fps=377 q=-0.0 size=N/A time=00:21:36.79 bitrate=N/A speed=15.7x    frame=31297 fps=377 q=-0.0 size=N/A time=00:21:45.34 bitrate=N/A speed=15.7x    frame=31480 fps=377 q=-0.0 size=N/A time=00:21:52.97 bitrate=N/A speed=15.7x    frame=31678 fps=377 q=-0.0 size=N/A time=00:22:01.23 bitrate=N/A speed=15.7x    frame=31864 fps=377 q=-0.0 size=N/A time=00:22:08.99 bitrate=N/A speed=15.7x    frame=32061 fps=376 q=-0.0 size=N/A time=00:22:17.21 bitrate=N/A speed=15.7x    frame=32258 fps=377 q=-0.0 size=N/A time=00:22:25.42 bitrate=N/A speed=15.7x    frame=32453 fps=377 q=-0.0 size=N/A time=00:22:33.56 bitrate=N/A speed=15.7x    frame=32638 fps=376 q=-0.0 size=N/A time=00:22:41.27 bitrate=N/A speed=15.7x    frame=32795 fps=376 q=-0.0 size=N/A time=00:22:47.82 bitrate=N/A speed=15.7x    frame=32967 fps=376 q=-0.0 size=N/A time=00:22:54.99 bitrate=N/A speed=15.7x    frame=33141 fps=376 q=-0.0 size=N/A time=00:23:02.25 bitrate=N/A speed=15.7x    frame=33323 fps=375 q=-0.0 size=N/A time=00:23:09.84 bitrate=N/A speed=15.7x    frame=33493 fps=375 q=-0.0 size=N/A time=00:23:16.93 bitrate=N/A speed=15.6x    frame=33648 fps=375 q=-0.0 size=N/A time=00:23:23.40 bitrate=N/A speed=15.6x    frame=33787 fps=374 q=-0.0 size=N/A time=00:23:29.19 bitrate=N/A speed=15.6x    frame=33913 fps=373 q=-0.0 size=N/A time=00:23:34.45 bitrate=N/A speed=15.6x    frame=34090 fps=373 q=-0.0 size=N/A time=00:23:41.83 bitrate=N/A speed=15.6x    frame=34252 fps=373 q=-0.0 size=N/A time=00:23:48.59 bitrate=N/A speed=15.6x    frame=34381 fps=372 q=-0.0 size=N/A time=00:23:53.97 bitrate=N/A speed=15.5x    frame=34518 fps=372 q=-0.0 size=N/A time=00:23:59.68 bitrate=N/A speed=15.5x    [Parsed_ssim_16 @ 000001dc20654a80] SSIM Y:0.994166 (22.340677) U:0.993997 (22.215959) V:0.993604 (21.940966) All:0.994044 (22.250747)
[out#0/null @ 000001dc13163a00] video:14903KiB audio:271276KiB subtitle:0KiB other streams:0KiB global headers:0KiB muxing overhead: unknown
frame=34683 fps=372 q=-0.0 Lsize=N/A time=00:24:06.57 bitrate=N/A speed=15.5x    
